<svg fill="#fff" height="56" viewBox="0 0 56 56" width="56" xmlns="http://www.w3.org/2000/svg"><path d="m9.4257 43.2461h37.1485c2.2263 0 3.5391-1.1484 3.5391-2.8359 0-2.3438-2.3673-4.4532-4.4063-6.5391-1.5469-1.6172-1.9688-4.9453-2.1328-7.6406-.1875-9-2.5547-15.211-8.8125-17.461-.8672-3.0469-3.3047-5.4843-6.75-5.4843-3.4688 0-5.8828 2.4374-6.7735 5.4843-6.2343 2.25-8.625 8.461-8.789 17.461-.1875 2.6953-.586 6.0234-2.1563 7.6406-2.0156 2.0859-4.4062 4.1953-4.4062 6.5391 0 1.6875 1.3359 2.8359 3.539 2.8359zm11.4375 3.1875c.2813 3.4219 3.1641 6.2812 7.1485 6.2812 3.9609 0 6.8437-2.8593 7.1484-6.2812z"/></svg>